<?xml version="1.0" encoding="UTF-8" standalone="no"?>
<!DOCTYPE svg PUBLIC "-//W3C//DTD SVG 1.1//EN" "http://www.w3.org/Graphics/SVG/1.1/DTD/svg11.dtd">
<svg xmlns="http://www.w3.org/2000/svg" version="1.1" xmlns:xlink="http://www.w3.org/1999/xlink" width="650px" height="3030.0px">
<style>text {font-family:PingFangSC-Regular, Microsoft YaHei, 'Hiragino Sans GB', Helvetica; ;font-size:14px;fill:#333;}</style>
	<text x="0" y="47">错脾释程迎条弟液坐观疯皮晒杠木腔任沃殊末触削防蝴胳尽躲理峰虏州赢火赛逆救燕辜奔小所申</text>
	<text x="0" y="85">福点顿斑移票歇冻窄冶漆牵宁颠辰切做冬克钥捧缸绣缴旬堪散庄专廊容斩爽珠与丸庭除拦好毒外</text>
	<text x="0" y="130">传巾半梨按橘熔逐乐喇鄙谨享警闭放伴乱超敬裕而店绵服说役丑则飞坊梅客何引相幕辽驼清剪主</text>
	<text x="0" y="172">抢屑唇烂因毫序卡祥铲链筝详燥晃寿避撞枕民蔑薪弄化早仗毅公物瓣胶羞倒捆油纪但粪怨零泄离</text>
	<text x="0" y="218">涝盆款懂懒杀位龄谷绍粮香尘秒由夹敞妈殿北训哨捏戴着滴遥草沟茎欺踏带被汤操某浮蜡蹄财今</text>
	<text x="0" y="266">览寄后筑虾级喜疑阶馋衡广拿摄器咏震队颤垮滚聚傻张斗坑匪办免号犹跪茂谣俊遗察奴钢婆已隙</text>
	<text x="0" y="316">升逢碌职纱混肥匙咱雨心此勾停夏稍匠鬼府旧环长行羊桨谊胞典乘绑厅爷料横个朽金贵遭邻汗协</text>
	<text x="0" y="351">色韵棋丘初僻灌挖卖猾演骤及宏道测征尸口直寺携乏伐常年众洪泛练午楼最维掀舞记押窗为苗厌</text>
	<text x="0" y="397">虫砍夺喊恨滔坡累卷自万绳踪凯捎晶段区刚炎斥咐信吗假擦瘦吓提昨追悟描脚惧劫锤沸买密叼烧</text>
	<text x="0" y="447">骑匆晋岸融幅尺洁扒岛拒仁轮琴叛儿门悲富忍供凶谅判炒到茧盟寒汁男精披尖速堂挂明族躺桥季</text>
	<text x="0" y="482">限寨技碑凡贴壳厚坦腊伏扇翻玻暗摆兄托翠脆跃久侍盖滤要旷河召甚跌于茅叹语伪饿罢一冤槐俭</text>
	<text x="0" y="531">闻债松炉疫柱太捉转辈农派鼠烤仪几墓狠朴奖央叶桑茶完咸窑塑竭近经您新隆爪逼延继试国角想</text>
	<text x="0" y="572">逮彻劳丹尊壤晕他填垄材嚷霉潮拼份彼浙榨短绸锹卵趴阁刺亮骄收仰励静泪流泡屠周讽失身进肠</text>
	<text x="0" y="611">戚仍达扔舍肤揉恳然塌词竹执啦叔热沫安蛋损私第饥际旅拣萝休夸践雷雾君铸倘涂姨堵邀纷肾摊</text>
	<text x="0" y="655">治丁导辆驱诊颈称朱沙卸审活宿笛忌原雕赵拖臭束遮港令浪搬套灵摩讨诵女源闯包蛙阿礼养距煌</text>
	<text x="0" y="697">鸽惜燃菜勺巴线闹粱余赞污句武粉丛陷腿玩撇钟需旨抵些肌雀搂甜更欣疗帆考垃互孔曾甩画博汉</text>
	<text x="0" y="739">否结剥篮黄订漏球法东质罐芒贝瓜狼嘱字访妨睛牲什慕依锻醉牢盛伶奸群司官跳表浊爬差浓痛碧</text>
	<text x="0" y="785">湖乓既舌易券玉疮摸柄踢文糊币著俯怒纸搅焦云倚渴筛醒瓦栏省庙在铅恼掘灾谋捷黑势爸蔬轿肺</text>
	<text x="0" y="820">台共求胀悄扮钉发询却揪田残类仓兴解危跨惕是佳迹渔誉域杰野螺俘架会秩突贺敌饺乎恋水钻计</text>
	<text x="0" y="865">摇打世裳含葵桃俩乙晚学快增弯蹦标体怖课刑击弊吃冲迟兆瞒去雹看欧备里冰念形喂系狐面前阻</text>
	<text x="0" y="897">氏米设运粘细录慨猪们纹宪撑载朝霸助页嫌聋空史统核旺秆诞赔匹方奶滩从认书百趣峡猴预躬入</text>
	<text x="0" y="928">仔湿智春大伯厉识滋煤吧挥组题成灭疤反激界通络肚孝陵坚乳骂鸭竖泽蔽册附天期砌壁贩厕铃堆</text>
	<text x="0" y="972">唐吊师钳病愿绩帘席产籍害呼膊阔舱衫稀欲枪辛翼取悠拔艘园皂滥烈元盘袋企脊裙谎帐权竿烘授</text>
	<text x="0" y="1013">孩芬石宵肃神埋饲送怀宽酷平蒙循侨撤日灰待价吞淡藏八范获粗娇射掩捞俱猫储况批街开先肩型</text>
	<text x="0" y="1052">辉膛醋慎覆喘妹县皱背纺卧始彩把纵问脑蚂巷锁圆绞暑徐奉麻拜诱摧味崇刻泰繁誓耳攀箩纤滨笨</text>
	<text x="0" y="1096">佛冷哪帮羽辱殃食议盲坟蜜同数纽疆够笋落逗投利鱼亏寸视村忆意葬姐昆蛛孕剃睡正刷怎才魔蝶</text>
	<text x="0" y="1129">扫垂鞋望辅肝模约冒租腐块膝膀构瞧该促凤候溉础研捐资举总欠颜胸皆炊马六整义控菠件赌用烫</text>
	<text x="0" y="1167">过艇故倍徒荣慢肿勤勇括斤岩伸怪止屯赴缘缩哭喉棕重删添薄渣矮岭生代苹老科墙靠锄妙侮偿哥</text>
	<text x="0" y="1212">毯趋苍捡均鹰孟售丈终囊划究消销淘景向涉工椒言馒拍啊居且见阵阅昼夕蓬陶讯暴庸随亲涌哑惭</text>
	<text x="0" y="1250">哲挪栽异虹便亭杨姜悉殖抹李根馆柿山盐绿漂气续龙榜浴将定桐巧降帽叉额健闷锅树谁宙傍屿锦</text>
	<text x="0" y="1295">亩度枝颗济飘难愁十鸡许陪堡汪基启宗积奋镰斯址留疾策迷筒采婶熟唯浸橡耕弦乔瑞务王酒辣友</text>
	<text x="0" y="1331">羡缎舒塘糟贯炭分献肢翁独歉屋胖楚剧处洒讲剑性返酿洗耐浩愉鸦项鹅厘朵篇量厨奇己让德无润</text>
	<text x="0" y="1368">锋纲染康盈赏你风迁岗旗芦幻妇童兵吉围斧星乌读湾愈决艰厦昌肆邪析朋杂车挺脏受樱巨痰贼振</text>
	<text x="0" y="1412">业祖伙路惊椅甘音卫扰值陆惑晴二社柜育命足证劣驾嘉秀极善员人霜管扯顷改航微槽敏卜骡蜓洽</text>
	<text x="0" y="1451">赶饼付兼隔创仆吹剖悬领非怜麦节秤锐建豪状裂攻乞象论惨肯狡胁丢和房毛盏土帖立唱棉图垦别</text>
	<text x="0" y="1497">井青眠拘梢吨告植罪矛林芽寻桌栗馅侵窝滑呆至沉态笼我沿案尿减摔肉弃争稼咬恢蛮照箱宋键者</text>
	<text x="0" y="1534">歌挤夜冈蓝它械妥手戒姓孤澡委宰巡美复悼磨傅腥伞腰律兔选僵驴充历查盼杯呀宾库碰硬棚烛购</text>
	<text x="0" y="1577">嗽再疲吵符妖唤亚歪评泉叨远首凳尚眯匀呈哈衬白磁棒虎驻益略梁锈淹据疏钓萌踩市蚕鞭鲁给鲜</text>
	<text x="0" y="1609">朗聪检秋拨少袖粒床挣封凭柔苦临葛息刘径刀货旁枣虑框遣饮贫拢塞黎禁袜陈城加途保谱丰扎忙</text>
	<text x="0" y="1651">每接盯简萄葡榴镇培牧犯仇登补榆熊赖品茫联饭泥全英志招诗知叙丽净合抛株谜锡算餐姥概海伟</text>
	<text x="0" y="1701">缓慰普蜘帜找浑脱粥狸祝皇样机饰铁动绕血铺掏掉革软悔胡力氧掌烟堤愧答双梳挑娃膨涨并垫战</text>
	<text x="0" y="1739">狭叫绘借当焰泊搏岔对崖帅祸截蛇罚团调圣秘锣迅播挨婚艳蜂谈届永宅江狮洲只耗往层桂尾凉右</text>
	<text x="0" y="1772">膜中雪牛菌妄这递九芳洋版示尤嫁营校屡压轧恩趟盗渠绝蹲关姑折排怠嘴习败良敲恐跑教熄适耍</text>
	<text x="0" y="1813">衣邮阀穿墨漫霞换弱档倦优魂惰闪惯昂拴内嚼妻坝配拥签得修敢狱援支仅思齐遍院柳耀确贷患驶</text>
	<text x="0" y="1848">衰满龟报趁厂步扑牙乒恒露洞搞脂犁京使庆倡碎渗叠眼泳糕棍母膏都固比果薯喝畜听责惹齿稳违</text>
	<text x="0" y="1890">误猛剂轰恶迈悦岁慧部番唉串轻胜其码郑窜格昏怕毕隶也偶歼次准章酱袄犬毁深脉钞介笑古功蹈</text>
	<text x="0" y="1927">花叮银炕班绢哀沾驰荡灶属以闲筋督多须烦蒜顺罗贪亦陡闸困药矩暖川冠贞柴有缠紫圈娘晌诚潜</text>
	<text x="0" y="1975">阴恭呜局情负出觉铜坛揭溪灿杜场允栋起惠畏臣站丧筐扣虚针扬狂泻蚁凝欢两傲拾嗓月碗蜻抓强</text>
	<text x="0" y="2008">请暂三郎逝红刊列探商哄南猎术戏裤饱像葱没或棵破鹿了走伤煮缺郊梯罩占巩规仿现颂户地顽船</text>
	<text x="0" y="2053">握稿五帝兽光袍底副输严透刮扁事若森就监勒摘陕鸟扶笔贤杏捕暮上坏糖咳回税电译致砖柏吼矿</text>
	<text x="0" y="2092">骆作耻斜劈禽贡爱慌话间睬搁不翅荷室四恰忽袭掠宝胃似率勿鼻波抗士贱虽夫佣俗愚宇碍承剩劝</text>
	<text x="0" y="2132">显归布裹珍驳游估穷浆疼旋编廉痒诸臂温爹哗高眉退腾拉桶凑倾御煎脖影担的蛾割镜惩幼沈勉板</text>
	<text x="0" y="2179">具那尼断施芝催丝搭声蚀秃般伍偏躁死宫屈绒姿拆竟腹之禾紧秧险么宜寇忧制纠幸吐谦替喷毙爆</text>
	<text x="0" y="2227">撒浇鞠嫩拳抚置交吸筹圾脸写涛荒畅胆渡晓梦萍牌抄应渐芹即忠映头弹娱雁炸遇展端真护丙挠轨</text>
	<text x="0" y="2270">赤挡晨索抖住障灯千璃菊挽实枯特较扭瞎名穴蒸谢兰亿撕废政赚絮蚊辩愤崭竞董网豆尝很蓄牺蕉</text>
	<text x="0" y="2305">还诉下座可耽党鸣旦垒溜仙子侧岂骗股杆宣威华嫂集目顾侄片努家择变军弓饶瓶津舰裁纳舟纯盒</text>
	<text x="0" y="2343">呢症干绪旱艺装贸淋插搜又劲予曲茄骨吴跟造壶蝇亡辫存抽忘猜连箭另七钱乃本甲苏睁偷貌抬鹊</text>
	<text x="0" y="2388">池眨佩如刃舅吩边锯僚宴啄稠抱急辞织扛必莫父咽素持迫时炮推汇雄希西慈述缝指辨奏响挎辟乡</text>
	<text x="0" y="2419">痕蠢未窃来衔漠塔低参雅壮稻单荐炼魄越酸例穗乖医汽等阳鼓糠费境酬钩感隐赠奥守莲泼能默拌</text>
	<text x="0" y="2455">逃各遵拐侦狗顶姻验她浅左贿种扩孙式注盾效鉴</text>
</svg>