<?xml version="1.0" encoding="UTF-8" standalone="no"?>
<!DOCTYPE svg PUBLIC "-//W3C//DTD SVG 1.1//EN" "http://www.w3.org/Graphics/SVG/1.1/DTD/svg11.dtd">
<svg xmlns="http://www.w3.org/2000/svg" version="1.1" xmlns:xlink="http://www.w3.org/1999/xlink" width="650px" height="3030.0px">
<style>text {font-family:PingFangSC-Regular, Microsoft YaHei, 'Hiragino Sans GB', Helvetica; ;font-size:14px;fill:#333;}</style>
	<text x="0" y="42">坡凯事款销功蚊葵区煮浪蔑拨峰娃死毕义粪困伐塑薯焰乔瓣干增庆债槐柱矩抗鄙弹释翼瓶掉帆允</text>
	<text x="0" y="92">鸽阴久叛虎株失冒假笛医俗祖始日血然割梳房堂卜恳犹画终侦涌陷姿范谨阔蜂滚痕牛头泰疤气诚</text>
	<text x="0" y="132">靠社杯桃根及凭芳艰照叮脆宇酱芝狂督闻财弟猾缓撑施荒糊茧量浑败充港萍刊裳似世弃狭西恨懒</text>
	<text x="0" y="166">帅熔衔葛保并宙遇贱种也哑绸孩肤好魔浴醋习岭益胖浩仍洽绢卡负飞未烘寸汗托残棋美烂估随束</text>
	<text x="0" y="214">析愿麻感做准赢动列完原奇斩恩守迟检爹内沈躺合个划耻众刻墙孟垄料体悦将灵庄符冶提良哄分</text>
	<text x="0" y="261">扮击状粘健骑踢欠狼娇绿嚷烈丧洲遍缺谦励暗儿井衰希婚抄承吩言刃闯泥蜻丈果摇草秤妇乞翻润</text>
	<text x="0" y="305">咸质蹲费扣源咐讲密碎股迷底勒哨绍糠坟皂隙肿袖字径届孝令高捆纤榴盏渠截服雷鼠城航诗熟州</text>
	<text x="0" y="354">既墓瞧暴温绣梦蜓再锹昌爷以司易浮拉踩简难岁哥电晴键革廊宿轮狮端币味灌景耽剥桐技糕宅执</text>
	<text x="0" y="397">象挎潮朵卖碧腥膜兆蝶煤晃宁拼谜纠之栗背把运详铁布眉者悬披忠户菌关松矿还领秃途匹唯透给</text>
	<text x="0" y="441">锄湖淘渡箭英摊顾叹书墨优般阳室碗删典竹梢症拐循时沙住推钢棉盘肌影进绕脖圣粱鸭贫耗嚼统</text>
	<text x="0" y="478">驳吓欢皱蛇许滨捎性矮僵吐爱啦怖汤明大贼敏袭企瞎斧绪厕铲抵概意冈恢拿垒疼报惯决澡重话榨</text>
	<text x="0" y="520">小雄句镇异谈圾他耕叠律扩浙嗓晚智吧叶月乎削珍巧匙楼侵凑盐贵盼的危信彼商生察疫工载贞亲</text>
	<text x="0" y="555">微叨芒竭谱灯贪仔促剑浅鉴家否赌弊貌逃聪童慰特锦漆换餐醉挡扭嫩护北静赛挤青骨胀士泊像免</text>
	<text x="0" y="599">恒妈骄尘歼萌网椅伙称泽栽侄锣侮虫竖折鸡命猜寿拘趋沃雕蛙启锐开落刺辽缠碌间窃紫逗酷散撇</text>
	<text x="0" y="637">势拢导材疑伴傅呀旷脚所踏回繁储楚嫂勇迁宾孤响烤虹烛遵锤搂闹标膊来限笼璃脉球农庙筐姑溉</text>
	<text x="0" y="682">勿厦售振枯当欣涉颈资防订跌轧揭座呈版灾威蹈蓬橡钉隆册尚赖汇芬钟纵绒按今缩茅着蕉爪半得</text>
	<text x="0" y="721">环康访罪非右钻录塔无肺殃史听棍券抚熄宽冲泼馅结炊油廉纸桂颗孔锻算诱陈取擦挺妹姥苹霞验</text>
	<text x="0" y="769">舍咏经跑枣呼饥触藏哀寨刑苏撕忍彻饼催患颤筹花阶架纳寒悟认各旧虽慈年对兴膝甜次猫轨暑仙</text>
	<text x="0" y="812">抖女幼绞饱什宝联扶役乏插邻都宜档艳亦授践亮扰清匠颂氧它页乱候杂徒跳丰哲声压婶巡泻某身</text>
	<text x="0" y="845">掠示银避誉厅衬刚嘱孙塌啄远食羽倚翁火雨恐昏追比傲忘肝漏如旅板劳穿茄犯颜茎邮盗谷闲树村</text>
	<text x="0" y="888">拴计跃暖笔但强门培瞒镜偏霉精挣份另雀该外多瓜遥瓦正谣搁谋啊露派耀腰诊旋掀诸稠妙毒屈湾</text>
	<text x="0" y="919">盾十累械兽代郎毫用凳鲁隶眨府壁伶左贷逝断躁搅衡蔬码续止恭摔词建连淡溜九坑蛮梁票除丛赤</text>
	<text x="0" y="955">值己潜鹿皆普蔽押营例拍号探怪仓艺双扫思挨马腐膨坝沉碍水蚀堤跨帖脱粉责哈近炭辨罚晨识语</text>
	<text x="0" y="1000">周钩部饮飘努胜自江肢枪式姨泄屡凶厌改奏编想陆面伏风需翠吼格顿穗队蚁横敢与店伟蚕丸汉耍</text>
	<text x="0" y="1036">驰杨捐积锁俊捉仁巷裤疾举眼官盒琴凤段驴丹预利际懂渣杠豆退朽博渐亡弱构岔则担零阅鸟椒福</text>
	<text x="0" y="1086">岗肠院捕实煌副奔怕涛辅屑素选窜刮扔罐顺棚龄滑袜辫尸枕渔址相绑虚两筝遭叉坛绵菊程唤武唉</text>
	<text x="0" y="1127">损灰痰倒歌炎肥漂屿予低校即兔为妨肩平偿激见究严层壤又们寺咳绩匪狐卷盈勾慌辰辟钞贯灭偶</text>
	<text x="0" y="1172">嫁伤疯物委贸玻尺德鲜韵蹄念攀彩卸读心亏暂挪互魄钓条悔裹垮药瘦扎窄游方脑喂填垫猎畏白拳</text>
	<text x="0" y="1211">敲缝莫仗克起论伸贺惠打已臭炸燕富握咬出汪籍贝寇光夺灶闷俘别溪闪艇川吊刀均注矛殊鼻偷俭</text>
	<text x="0" y="1247">理犬猴鞭劝文显苗棵挠供逮制害查坊奉看拜独含屯倍群呢碑赏于晒租裕旁抽鬼翅息荐金道归烧羞</text>
	<text x="0" y="1286">父角价亚遣禽疆登穷离犁介元筛说杀榆尿愈破等输津萄镰旺较颠羡作六怨省炒情咱眠研泉祸石坦</text>
	<text x="0" y="1321">活三醒拆舌葱共拾妄级旨些蒙目跟贤砖吸悠梅丑何猪名昨峡每惊丽歇志慎勉叼唱奖驻罩索鹅附祝</text>
	<text x="0" y="1352">秧支缸船胳刷仿境舱诉满佩泪民鱼虏休敌哪摸兵荡越宫秩沾酬子盟趣丝毙仪幕够谅贿办挥扁脊么</text>
	<text x="0" y="1399">边愉厉舒粮沸陡找杰上测伞拦操宵羊件度请侨贩缴梨笋辩狠姜兰怎圆爬乳纽愚口戏稳茫轻窗桨臂</text>
	<text x="0" y="1443">案片末玉掌酿友蜡而欧稿垂午到吹粥图姻屠盆牢县装试摄泛抱尼援波赚缎瑞吵夸育入倡弦绘兄渗</text>
	<text x="0" y="1479">娘奋宋桑嘴逆系帝薪组师视赠祥劲幻类短筒蹦务仅疗亿朱买秘八搞收去雁核或渴速弄陕荷添盖至</text>
	<text x="0" y="1521">治铺乐撤淹吉解力狡权宣仰僚阻天霸喇摆剖却震向春喝蛋辆愁奸衣学谢乙调依曲丁爸帘纪岸补后</text>
	<text x="0" y="1567">腹刘捡霜仆斥劣序善葬菠臣馒巨存帐袍舞辱饭旗拥季雹恰筋走品射融玩若猛姐虑惹况虾您歉少芹</text>
	<text x="0" y="1606">拣龟唐誓摧螺鹰粗黑陪胡皮汁色链慕确萝柴蛛块磁冻锋尊变须待恼衫匀母赶孕鸣蝴丢数陵税下诞</text>
	<text x="0" y="1647">斗纷林签人隐策观锡钥项岛冤筑涨旦聋括尽修迈痒铸赵市审余乃夕惑污族成昆舅滥辉杆袋壮辣历</text>
	<text x="0" y="1693">率苍享属界洁被辛骆俱她齐喘初柿茂老嘉奥盯置望剪域全昂疲四扛脾化缘锅其抢使征临寄往席朗</text>
	<text x="0" y="1731">乒诵蚂滔不剧反恋接晕先郊踪辞扬纱豪借喉崭展误稼绝播坐迅恶枝央付病器罗管通裙怠车锯堪基</text>
	<text x="0" y="1781">尤揉叔柜留引减园京樱采顽浇碰获扇粒寻加垦甘捞饶宏滩亭惜怜腊稻亩送棒闸云讯愤返战毛唇卧</text>
	<text x="0" y="1817">睛写搜旱趴华雅柏突围配规哗胶证赔忽膀模沫郑胆红轰胁障救御铃继晓沟期炉万礼择险卵员降讨</text>
	<text x="0" y="1848">行知创惭戴炼厂慨砍旬居递煎警同映甩梯杜包呆太表俩絮造空讽莲参献货练问伪课捧译议纹氏百</text>
	<text x="0" y="1892">凡抛喜复卫争堡深产这指惰河吞超熊泳任戚设铜且爽顶几永览饰液黎切忧记才芦捏徐描撒鹊广轿</text>
	<text x="0" y="1934">脂狸络音佳撞了丙细私箩棕疏揪柔是节野驾栋扒倾达废济怀便排星致古毯侍召求你湿甲顷驶酸洞</text>
	<text x="0" y="1970">笑跪昼土晶控毅脸额最佣邀乖剂据芽适秀娱现备训崖洗馋栏紧足钳耐传厘胞庭东傍惩占国宰巾悉</text>
	<text x="0" y="2014">应机差我腾橘君倦敬男立灿弓挑睁斯剃尾千漠直腿搬五蠢抬僻抓夫此掩植受投搭惨罢持朴牌真妖</text>
	<text x="0" y="2054">错米糟烦夏在演禁尝谎牵铅洪硬眯池迎迹桶堵帮钱乘染烟绳肚兼遮浸整屋丘幅考隔转牙捷急耳漫</text>
	<text x="0" y="2101">奴宗询淋驼浆滋悼张佛闭阵地糖纯南塞拖台赴董覆朝砌毁觉主步定齿麦辈弯斑软贴搏凝扑苦窑壶</text>
	<text x="0" y="2144">稀单燥党痛伯肆鞠牺香姓助欺固阿攻具乡夜睡锈纺竿肃织斜科抹拌街畅帽怒乓套必柳歪敞坚饲殖</text>
	<text x="0" y="2192">专袄扯雪坏冬让帜挽朋安迫样岂骂神勤狗谁冷躲涂膛海崇冠吗胃傻茶容汽乌养新菜垃竞判妻军有</text>
	<text x="0" y="2241">雾饿尖述趟膏皇喷呜默辜塘冰裂殿纲形秒移掏沿贡箱封骤惧里谊秋晋热蛾蒜腔杏违手慢堆忌森会</text>
	<text x="0" y="2274">慧评狱混招嗽净圈哭囊掘劈蒸要第团勺蜜极胸距喊婆阁涝吃浓政爆态库庸榜赞肉流只宴田稍本挂</text>
	<text x="0" y="2310">叫趁仇驱睬故线桌教魂晌炮俯替首篇总职戒因牲燃约叙局厚蓄更嫌业肯集就妥升章侧那拒倘蜘础</text>
	<text x="0" y="2360">携公骡蓝伍处滴斤磨鞋馆惕带鸦聚酒岩劫焦过没珠题能申裁匆暮浊悄巴针停消盲盛槽答奶邪鼓洒</text>
	<text x="0" y="2407">著宪番挖木舰维批艘凉场悲饺巩吨剩中洋肾逢路山常术班忆协拔从欲篮夹告龙柄烫交秆早长穴甚</text>
	<text x="0" y="2456">禾逐躬桥站吴蝇串可阀舟黄曾忙位愧牧滤幸效一竟厨脏荣监点逼延李床七王畜陶二前发遗摩摘放</text>
	<text x="0" y="2497">泡购炕快客咽骗窝和型葡疮很壳笨埋法略薄框由</text>
</svg>